<svg width="27" height="29" viewBox="0 0 27 29" fill="none" xmlns="http://www.w3.org/2000/svg">
<path d="M11 2.44338C12.547 1.55021 14.453 1.55021 16 2.44338L22.6913 6.30662C24.2383 7.19979 25.1913 8.85042 25.1913 10.6368V18.3632C25.1913 20.1496 24.2383 21.8002 22.6913 22.6934L16 26.5566C14.453 27.4498 12.547 27.4498 11 26.5566L4.30866 22.6934C2.76165 21.8002 1.80866 20.1496 1.80866 18.3632V10.6368C1.80866 8.85042 2.76165 7.19979 4.30866 6.30662L11 2.44338Z" fill="url(#paint0_radial_3399_58813)"/>
<path d="M16.25 2.01036C14.5483 1.02788 12.4517 1.02788 10.75 2.01036L4.05866 5.87361C2.35695 6.85609 1.30866 8.67179 1.30866 10.6368V18.3632C1.30866 20.3282 2.35695 22.1439 4.05866 23.1264L10.75 26.9896C12.4517 27.9721 14.5483 27.9721 16.25 26.9896L22.9413 23.1264C24.643 22.1439 25.6913 20.3282 25.6913 18.3632V10.6368C25.6913 8.67179 24.6431 6.85609 22.9413 5.87361L16.25 2.01036Z" stroke="black" stroke-opacity="0.05"/>
<path d="M11.9999 7.14923C12.9281 6.61333 14.0717 6.61333 14.9999 7.14923L19.1163 9.52587C20.0445 10.0618 20.6163 11.0522 20.6163 12.1239V16.8772C20.6163 17.949 20.0445 18.9394 19.1163 19.4753L14.9999 21.852C14.0717 22.3879 12.9281 22.3879 11.9999 21.852L7.88339 19.4753C6.95519 18.9394 6.38339 17.949 6.38339 16.8772V12.1239C6.38339 11.0522 6.95519 10.0618 7.88339 9.52587L11.9999 7.14923Z" fill="url(#paint1_radial_3399_58813)"/>
<path d="M11.9999 7.14923C12.9281 6.61333 14.0717 6.61333 14.9999 7.14923L19.1163 9.52587C20.0445 10.0618 20.6163 11.0522 20.6163 12.1239V16.8772C20.6163 17.949 20.0445 18.9394 19.1163 19.4753L14.9999 21.852C14.0717 22.3879 12.9281 22.3879 11.9999 21.852L7.88339 19.4753C6.95519 18.9394 6.38339 17.949 6.38339 16.8772V12.1239C6.38339 11.0522 6.95519 10.0618 7.88339 9.52587L11.9999 7.14923Z" fill="black" fill-opacity="0.15"/>
<path d="M12.2499 7.58224C13.0234 7.13566 13.9764 7.13566 14.7499 7.58224L18.8663 9.95889C19.6398 10.4055 20.1163 11.2308 20.1163 12.1239V16.8772C20.1163 17.7704 19.6398 18.5957 18.8663 19.0423L14.7499 21.4189C13.9764 21.8655 13.0234 21.8655 12.2499 21.4189L8.13339 19.0423C7.35989 18.5957 6.88339 17.7704 6.88339 16.8772V12.1239C6.88339 11.2308 7.35989 10.4055 8.13339 9.95889L12.2499 7.58224Z" stroke="black" stroke-opacity="0.05"/>
<defs>
<radialGradient id="paint0_radial_3399_58813" cx="0" cy="0" r="1" gradientUnits="userSpaceOnUse" gradientTransform="translate(4.96323 21.1507) rotate(-36.8699) scale(22.8309)">
<stop stop-color="#33FFDB"/>
<stop offset="1" stop-color="#A596F6"/>
</radialGradient>
<radialGradient id="paint1_radial_3399_58813" cx="0" cy="0" r="1" gradientUnits="userSpaceOnUse" gradientTransform="translate(19.4998 10.5006) rotate(147.995) scale(14.151)">
<stop offset="0.306131" stop-color="#A496F6"/>
<stop offset="1" stop-color="#33FFDB"/>
</radialGradient>
</defs>
</svg>
