<svg width="113" height="35" viewBox="0 0 113 35" fill="none" xmlns="http://www.w3.org/2000/svg">
<path d="M39.8359 22.5H43.1484V13.8516H46.2812V11.2266H36.7031V13.8516H39.8359V22.5ZM46.575 22.5H49.7781V18.0938C49.7781 16.8984 50.4891 16.2344 51.7859 16.2344C52.2 16.2344 52.6453 16.3047 53.0437 16.4141V13.7578C52.7312 13.6484 52.3797 13.5938 52.0203 13.5938C50.9266 13.5938 50.1609 14.1641 49.9344 15.1484H49.7781V13.7188H46.575V22.5ZM55.2047 12.7031C56.1031 12.7031 56.8375 12 56.8375 11.1094C56.8375 10.2109 56.1031 9.50781 55.2047 9.50781C54.3141 9.50781 53.5719 10.2109 53.5719 11.1094C53.5719 12 54.3141 12.7031 55.2047 12.7031ZM53.6031 22.5H56.8062V13.7188H53.6031V22.5ZM58.0375 25.3906H61.2406V21.0781H61.3969C61.8031 22.0547 62.7172 22.625 63.9203 22.625C66.1391 22.625 67.3734 21.0078 67.3734 18.1172V18.1016C67.3734 15.2344 66.0844 13.5938 63.9203 13.5938C62.6625 13.5938 61.7719 14.125 61.3969 15.0391H61.2406V13.7188H58.0375V25.3906ZM62.6781 20.0469C61.8109 20.0469 61.225 19.3203 61.225 18.1094V18.0938C61.225 16.8828 61.7953 16.1719 62.6781 16.1719C63.5531 16.1719 64.1234 16.8984 64.1234 18.1016V18.1172C64.1234 19.3047 63.5453 20.0469 62.6781 20.0469ZM68.175 22.5H71.3781V17.5391C71.3781 16.6875 71.8078 16.0781 72.5734 16.0781C73.3859 16.0781 73.7531 16.625 73.7531 17.5391V22.5H76.9562V16.8281C76.9562 14.7188 75.9562 13.5 74.0187 13.5C72.8 13.5 71.8937 14.1406 71.5344 15.1094H71.3781V13.7188H68.175V22.5ZM82.2812 22.7188C85.1875 22.7188 86.8828 21.0234 86.8828 18.1094V18.0938C86.8828 15.2422 85.1406 13.5 82.2812 13.5C79.4375 13.5 77.6797 15.2578 77.6797 18.0938V18.1094C77.6797 21.0156 79.3828 22.7188 82.2812 22.7188ZM82.2812 20.3438C81.4453 20.3438 80.9609 19.5234 80.9609 18.1172V18.1016C80.9609 16.7344 81.4609 15.875 82.2812 15.875C83.1016 15.875 83.6016 16.7344 83.6016 18.1016V18.1172C83.6016 19.5156 83.1172 20.3438 82.2812 20.3438ZM91.8328 22.5C92.4422 22.5 93.0203 22.4453 93.325 22.3828V20.1484C93.1375 20.1719 92.95 20.1875 92.6063 20.1875C91.9344 20.1875 91.6141 19.8984 91.6141 19.3438V16.0312H93.325V13.7188H91.6141V11.7891H88.4109V13.7188H87.0906V16.0312H88.4109V20.0547C88.4109 21.7891 89.3797 22.5 91.8328 22.5ZM98.4 22.7188C101.439 22.7188 102.463 20.9297 102.697 19.9219L102.72 19.8203L99.8297 19.8281L99.8141 19.8516C99.7203 19.9922 99.3219 20.5156 98.4625 20.5156C97.5406 20.5156 96.9938 19.8828 96.9781 18.8047H102.759V17.9219C102.759 15.2266 101.017 13.5 98.2984 13.5C95.5719 13.5 93.8453 15.2266 93.8453 18.1016V18.1094C93.8453 20.9844 95.5719 22.7188 98.4 22.7188ZM98.3844 15.7031C99.1188 15.7031 99.6344 16.1875 99.7594 17.0312H97.0094C97.1344 16.1875 97.65 15.7031 98.3844 15.7031ZM107.514 22.7188C110.014 22.7188 111.686 21.5312 111.686 19.6328V19.625C111.686 18.2891 110.85 17.5391 108.991 17.1875L107.428 16.8906C106.647 16.7422 106.428 16.5625 106.428 16.2188V16.2109C106.428 15.8047 106.811 15.5859 107.397 15.5859C108.084 15.5859 108.444 15.9766 108.506 16.2422L108.522 16.3125H111.428V16.2578C111.428 14.8594 110.147 13.5 107.397 13.5C104.889 13.5 103.366 14.5938 103.366 16.4297V16.4375C103.366 17.8047 104.272 18.7344 105.983 19.0625L107.545 19.3594C108.256 19.4922 108.514 19.6797 108.514 20.0312V20.0391C108.514 20.4141 108.131 20.625 107.514 20.625C106.795 20.625 106.428 20.3281 106.287 19.9609L106.264 19.8984H103.17L103.178 19.9688C103.35 21.5234 104.717 22.7188 107.514 22.7188Z" fill="#F0F0F0"/>
<path d="M22.275 22.4391C19.902 24.8121 12.4984 25.8579 9.36149 26.2072C8.61188 26.2884 7.9924 25.6689 8.07362 24.9193C8.42289 21.7824 9.46869 14.3788 11.8417 12.0057C14.7197 9.12772 19.3913 9.12937 22.2714 12.0094C25.1514 14.8895 25.153 19.5611 22.275 22.4391Z" stroke="#F0F0F0" stroke-width="1.67028"/>
<path d="M21.7298 7.15215C22.6786 6.20337 24.2169 6.20337 25.1657 7.15215L27.0838 9.07028C28.0326 10.0191 28.0326 11.5573 27.0838 12.5061L24.584 15.0059L19.23 9.65196L21.7298 7.15215Z" fill="#F0F0F0"/>
<path d="M8.76006 25.5202L15.4868 18.7934" stroke="#F0F0F0" stroke-width="1.36659"/>
<circle cx="1.87673" cy="1.87673" r="1.87673" transform="matrix(0.707106 0.707108 -0.707106 0.707108 16.1045 15.5224)" fill="#F0F0F0"/>
</svg>
